<svg width="95" height="95" viewBox="0 0 95 95" fill="none" xmlns="http://www.w3.org/2000/svg">
<path d="M4.64163 51.4385C4.67954 51.826 4.61752 52.1895 4.45212 52.529C4.28673 52.8685 4.04898 53.1497 3.73198 53.3691C3.41498 53.5886 3.04974 53.7189 2.63282 53.7601C2.2159 53.8012 1.82998 53.7429 1.47508 53.5886C1.12018 53.4343 0.830747 53.2045 0.603334 52.9028C0.379366 52.601 0.244986 52.2546 0.207084 51.8671C0.172628 51.5036 0.21053 51.1779 0.324236 50.8864C0.437943 50.5949 0.596442 50.3548 0.803181 50.1594C1.00992 49.9639 1.23733 49.8165 1.48542 49.7102L1.5371 50.2554C1.27868 50.3891 1.0685 50.5915 0.906551 50.8589C0.744605 51.1264 0.682584 51.4453 0.71704 51.8157C0.744605 52.1072 0.844529 52.3644 1.01337 52.5873C1.1822 52.8136 1.40272 52.9816 1.67148 53.0982C1.94369 53.2114 2.24346 53.256 2.57424 53.2217C2.90158 53.1908 3.18412 53.0914 3.42877 52.9233C3.67341 52.7553 3.85603 52.5461 3.97662 52.2924C4.10067 52.0386 4.14546 51.7711 4.1179 51.4865C4.07999 51.0956 3.94561 50.7801 3.71131 50.5435C3.47701 50.3068 3.20824 50.1491 2.89814 50.0702L2.84645 49.5318C3.13589 49.5833 3.40809 49.6861 3.66307 49.8405C3.92149 49.9948 4.13857 50.204 4.3143 50.4714C4.49003 50.7389 4.59684 51.0613 4.6313 51.4351L4.64163 51.4385Z" fill="#1B1A16"/>
<path d="M4.45215 46.6821C4.44526 47.0936 4.34189 47.464 4.14549 47.7932C3.94908 48.1224 3.67688 48.3796 3.33576 48.5648C2.99464 48.7499 2.61217 48.8391 2.19525 48.8322C1.77488 48.8254 1.39586 48.7225 1.05818 48.527C0.72051 48.3316 0.458641 48.0641 0.26913 47.7315C0.0830648 47.3954 -0.00652212 47.025 0.000369177 46.6135C0.00726048 46.202 0.11063 45.8317 0.307032 45.5025C0.503434 45.1733 0.77564 44.9161 1.12021 44.7309C1.46477 44.5457 1.84724 44.4566 2.26761 44.4634C2.68798 44.4703 3.06355 44.5731 3.40123 44.7686C3.73545 44.9675 3.99732 45.2316 4.18339 45.5676C4.36945 45.9037 4.45904 46.274 4.45215 46.6856V46.6821ZM3.9353 46.6753C3.93875 46.3666 3.87328 46.0854 3.72856 45.8317C3.58729 45.5779 3.38744 45.379 3.13246 45.2316C2.87749 45.0841 2.58461 45.0087 2.25727 45.0018C1.92304 44.9949 1.62672 45.0635 1.36829 45.2007C1.10987 45.3379 0.903129 45.5333 0.751521 45.7837C0.599912 46.034 0.524108 46.3118 0.517217 46.6204C0.510325 46.929 0.579238 47.2102 0.723956 47.464C0.868673 47.7178 1.06507 47.9166 1.32005 48.0641C1.57503 48.2116 1.87136 48.287 2.20214 48.2939C2.52948 48.3007 2.82236 48.2321 3.08423 48.095C3.34609 47.9578 3.54939 47.7623 3.701 47.512C3.85261 47.2617 3.92841 46.9839 3.9353 46.6753Z" fill="#1B1A16"/>
<path d="M4.48662 43.6027L0.241577 43.0471L0.313936 42.5019L1.03063 42.5945V42.5842C0.810109 42.4299 0.641272 42.2104 0.527566 41.9361C0.41386 41.6583 0.379403 41.3462 0.424197 41.0033C0.489664 40.5061 0.703294 40.1254 1.06509 39.8648C1.42688 39.6042 1.8886 39.5082 2.45368 39.5836L4.97245 39.9128L4.9001 40.4581L2.40545 40.1323C1.97818 40.0774 1.63707 40.1426 1.38209 40.3278C1.12711 40.5129 0.972055 40.7907 0.923816 41.1576C0.889359 41.4285 0.92037 41.6789 1.01685 41.9086C1.11333 42.1384 1.26838 42.327 1.47512 42.4745C1.6853 42.6219 1.93684 42.7179 2.23316 42.7557L4.55553 43.0574L4.48317 43.6027H4.48662Z" fill="#1B1A16"/>
<path d="M5.25496 38.6543L1.58189 37.8278L1.45096 38.3971L0.947895 38.2839L1.07883 37.7147L0.155396 37.5055L0.275993 36.9774L1.19943 37.1866L1.50954 35.8149L2.0126 35.928L1.70249 37.2997L4.86904 38.013L5.18949 36.6002L5.69255 36.7133L5.25151 38.6543H5.25496Z" fill="#1B1A16"/>
<path d="M6.50922 34.3026C6.39207 34.6558 6.19566 34.9507 5.91312 35.1874C5.63402 35.424 5.30324 35.5749 4.92422 35.6434C4.5452 35.712 4.15584 35.6812 3.75959 35.5509C3.36334 35.4205 3.02911 35.2148 2.76035 34.937C2.49159 34.6593 2.31586 34.3403 2.23317 33.9837C2.14703 33.6271 2.16425 33.2738 2.28141 32.9206C2.38133 32.6223 2.51571 32.3822 2.69144 32.2005C2.86717 32.0188 3.0429 31.885 3.22207 31.7993C3.40124 31.7135 3.53907 31.669 3.62866 31.6621V31.6553L2.87061 31.4049L3.03945 30.8905L7.10532 32.2211L6.93648 32.7355L6.18188 32.4886V32.4954C6.25079 32.5537 6.33349 32.6703 6.42652 32.8452C6.51956 33.0201 6.58158 33.2327 6.61259 33.4796C6.6436 33.7265 6.60914 34.0008 6.50922 34.2992V34.3026ZM6.03716 34.0866C6.12675 33.8157 6.14053 33.5448 6.07851 33.2704C6.01649 32.9961 5.88556 32.756 5.68226 32.5434C5.47897 32.3342 5.22055 32.1765 4.90355 32.0736C4.58655 31.9707 4.28333 31.9433 3.99734 31.9947C3.70791 32.0462 3.45637 32.1593 3.24274 32.3445C3.02911 32.5263 2.8775 32.7526 2.78792 33.0269C2.69833 33.2979 2.68455 33.5722 2.75001 33.8431C2.81548 34.1174 2.94642 34.3575 3.14971 34.5701C3.353 34.7827 3.61143 34.937 3.92843 35.0433C4.24543 35.1462 4.54864 35.1736 4.83463 35.1222C5.12407 35.0708 5.37215 34.9542 5.58578 34.7724C5.79597 34.5872 5.94758 34.3609 6.03716 34.09V34.0866Z" fill="#1B1A16"/>
<path d="M8.39744 29.512C8.23205 29.8652 7.9943 30.1464 7.68075 30.359C7.36719 30.5716 7.01918 30.6916 6.63327 30.7225C6.24736 30.7533 5.86489 30.6813 5.48587 30.5064C5.10685 30.3315 4.80018 30.0881 4.57277 29.776C4.34536 29.464 4.21098 29.121 4.16963 28.7438C4.12828 28.37 4.1903 28.0065 4.3557 27.6533C4.51075 27.3207 4.7106 27.0601 4.95524 26.868C5.19988 26.676 5.46175 26.5457 5.7374 26.4805C6.01305 26.4154 6.28526 26.4016 6.55402 26.4359L6.32316 26.9332C6.03373 26.9195 5.74774 26.988 5.47553 27.1355C5.19988 27.2864 4.9828 27.5299 4.82775 27.8659C4.70371 28.13 4.65891 28.4009 4.68992 28.6821C4.72093 28.9599 4.8243 29.217 5.00003 29.4537C5.17576 29.6903 5.41351 29.8755 5.71673 30.0161C6.01305 30.1532 6.30938 30.2115 6.6057 30.1875C6.90203 30.1669 7.1639 30.0778 7.3982 29.92C7.63251 29.7623 7.80824 29.5565 7.92883 29.2959C8.09423 28.9393 8.13902 28.5998 8.05632 28.2774C7.97363 27.9551 7.82202 27.6842 7.59461 27.4613L7.82202 26.9709C8.04254 27.1595 8.22516 27.3858 8.36988 27.6499C8.5146 27.9105 8.59384 28.202 8.61107 28.5209C8.6283 28.8398 8.55594 29.169 8.39744 29.512Z" fill="#1B1A16"/>
<path d="M9.70678 26.7514L6.4472 24.8791L6.15432 25.3832L5.70638 25.126L5.99926 24.6219L5.1792 24.1487L5.45141 23.6823L6.27147 24.1555L6.97783 22.9381L7.42576 23.1953L6.7194 24.4127L9.53105 26.0313L10.2581 24.7762L10.706 25.0334L9.70678 26.7549V26.7514Z" fill="#1B1A16"/>
<path d="M18.4139 15.9631C18.1245 16.2237 17.7937 16.3917 17.425 16.4672C17.0529 16.5426 16.6842 16.5186 16.319 16.3986C15.9538 16.2786 15.6299 16.0659 15.3439 15.7573C15.0613 15.4487 14.8753 15.1058 14.7891 14.732C14.6995 14.3548 14.7099 13.9878 14.8201 13.6278C14.9304 13.2677 15.1268 12.9556 15.4162 12.6916C15.6884 12.4447 15.9744 12.2801 16.2742 12.1978C16.574 12.1155 16.8668 12.0949 17.1459 12.1429C17.425 12.1909 17.6835 12.2835 17.9178 12.4172L17.5112 12.7876C17.2493 12.6607 16.9599 12.6161 16.6498 12.647C16.3362 12.6779 16.0433 12.8219 15.7677 13.0722C15.5506 13.2677 15.4024 13.5009 15.3232 13.7718C15.2439 14.0427 15.2405 14.317 15.3094 14.6017C15.3783 14.8863 15.5265 15.1503 15.7505 15.3972C15.971 15.6373 16.2225 15.8053 16.5016 15.8979C16.7807 15.9905 17.0598 16.0111 17.3389 15.9562C17.6146 15.9013 17.8592 15.7779 18.0728 15.5859C18.3657 15.3218 18.538 15.0235 18.5862 14.6977C18.6345 14.3685 18.6 14.0598 18.4794 13.7684L18.8791 13.4049C19.01 13.6655 19.0893 13.9433 19.1203 14.2416C19.1513 14.5399 19.1134 14.8383 19.0032 15.1366C18.8929 15.435 18.6999 15.7127 18.4174 15.9699L18.4139 15.9631Z" fill="#1B1A16"/>
<path d="M22.1317 12.9625C21.7975 13.2025 21.4392 13.3431 21.0567 13.3843C20.6742 13.422 20.3055 13.3637 19.9506 13.2025C19.5957 13.0414 19.296 12.791 19.0513 12.455C18.8067 12.1189 18.662 11.7554 18.6172 11.3645C18.5724 10.977 18.631 10.6066 18.786 10.2603C18.9445 9.91048 19.1891 9.61557 19.5234 9.37552C19.8576 9.13547 20.2159 8.99488 20.5984 8.95372C20.9809 8.916 21.3496 8.97773 21.7079 9.1389C22.0628 9.30351 22.366 9.55384 22.6107 9.8899C22.8553 10.2294 23 10.5895 23.0414 10.9735C23.0827 11.3576 23.0276 11.728 22.8691 12.0743C22.7106 12.4241 22.466 12.719 22.1317 12.9591V12.9625ZM21.8285 12.5441C22.08 12.3624 22.2661 12.1395 22.3833 11.8754C22.5039 11.6079 22.5452 11.3302 22.5108 11.0387C22.4763 10.7472 22.3626 10.4694 22.1696 10.2054C21.9732 9.93791 21.7424 9.73902 21.4736 9.61557C21.2049 9.49211 20.9258 9.4441 20.6363 9.47154C20.3469 9.49897 20.0747 9.60528 19.8231 9.78703C19.5716 9.96878 19.3855 10.1917 19.2684 10.4557C19.1478 10.7198 19.1065 11.001 19.1409 11.2925C19.1754 11.5839 19.2925 11.8651 19.4855 12.1326C19.6784 12.3967 19.9058 12.5921 20.1746 12.7156C20.4434 12.839 20.7225 12.8871 21.0119 12.8596C21.3013 12.8288 21.5735 12.7259 21.8251 12.5441H21.8285Z" fill="#1B1A16"/>
<path d="M24.6264 11.1484L22.5315 7.43113L23.0139 7.16365L23.3688 7.7912H23.3757C23.3688 7.51686 23.4411 7.25281 23.5962 6.99562C23.7513 6.73842 23.9821 6.52581 24.2853 6.35435C24.7264 6.10745 25.1605 6.05258 25.5878 6.18289C26.015 6.31663 26.3665 6.62869 26.6456 7.1225L27.8895 9.32749L27.4071 9.59497L26.177 7.41055C25.9668 7.03677 25.7084 6.80358 25.4086 6.71099C25.1054 6.6184 24.7918 6.66298 24.4645 6.84473C24.2233 6.97847 24.0407 7.15336 23.9132 7.3694C23.7857 7.58544 23.7271 7.81863 23.734 8.07582C23.7409 8.33302 23.8167 8.59021 23.9614 8.8474L25.1054 10.8809L24.623 11.1484H24.6264Z" fill="#1B1A16"/>
<path d="M29.061 8.80283L27.5277 5.38046L26.9936 5.61707L26.7834 5.14727L27.3175 4.91065L26.9316 4.04992L27.4278 3.83044L27.8137 4.69118L29.1058 4.1185L29.316 4.5883L28.0239 5.16099L29.3436 8.11355L30.6736 7.52373L30.8838 7.99353L29.0576 8.80283H29.061Z" fill="#1B1A16"/>
<path d="M33.3198 7.19795C32.9649 7.31454 32.61 7.33512 32.2517 7.25281C31.8933 7.17051 31.5729 6.99905 31.2903 6.73843C31.0078 6.47781 30.801 6.1486 30.6667 5.75424C30.5323 5.35988 30.4978 4.96895 30.5633 4.59173C30.6288 4.21109 30.7804 3.88188 31.0147 3.60068C31.249 3.31949 31.5453 3.12059 31.9002 3.004C32.2 2.90455 32.4756 2.87026 32.7237 2.90112C32.9718 2.93198 33.1854 2.99371 33.3612 3.0863C33.5369 3.17889 33.654 3.25776 33.7161 3.32977H33.723L33.468 2.57191L33.9814 2.40045L35.3424 6.44009L34.829 6.61155L34.5775 5.86398H34.5706C34.5637 5.95999 34.5189 6.09373 34.4362 6.27548C34.3501 6.4538 34.2191 6.62869 34.0365 6.80359C33.8539 6.97505 33.6161 7.11222 33.3164 7.21166L33.3198 7.19795ZM33.213 6.69042C33.4852 6.59783 33.7126 6.44695 33.8952 6.23776C34.0779 6.02515 34.195 5.77482 34.2433 5.49019C34.2915 5.20213 34.2639 4.90036 34.1571 4.5883C34.0503 4.27624 33.8918 4.01562 33.6782 3.81672C33.4645 3.61783 33.2199 3.48409 32.9477 3.42236C32.672 3.36064 32.3998 3.37435 32.1276 3.46694C31.8554 3.5561 31.628 3.71042 31.4454 3.92646C31.2628 4.1425 31.1491 4.39284 31.1008 4.68089C31.0526 4.96895 31.0801 5.27072 31.187 5.58278C31.2938 5.89827 31.4523 6.15546 31.6659 6.35436C31.8795 6.55325 32.1242 6.68356 32.3964 6.74186C32.672 6.80016 32.9442 6.78644 33.2164 6.69385L33.213 6.69042Z" fill="#1B1A16"/>
<path d="M38.3091 5.83999C37.9267 5.91886 37.558 5.89829 37.1996 5.77484C36.8413 5.65138 36.5346 5.44563 36.2796 5.15757C36.0247 4.86952 35.8558 4.51974 35.7662 4.11166C35.6801 3.70358 35.6939 3.31608 35.811 2.94572C35.9247 2.57536 36.1211 2.2633 36.4002 2.00611C36.6759 1.74892 37.0067 1.58089 37.3891 1.50201C37.7475 1.42657 38.0783 1.43 38.3815 1.50887C38.6847 1.58774 38.9431 1.71805 39.1602 1.8998C39.3773 2.08155 39.553 2.29074 39.6839 2.52735L39.143 2.64052C38.981 2.40047 38.7571 2.21529 38.4711 2.08498C38.1851 1.95467 37.8612 1.92724 37.496 2.00611C37.21 2.06784 36.9619 2.19129 36.7586 2.38333C36.5518 2.57536 36.4071 2.81198 36.3244 3.09318C36.2417 3.37437 36.2314 3.67615 36.3003 4.00192C36.3692 4.32084 36.5002 4.59175 36.6931 4.81465C36.8861 5.03755 37.1169 5.1953 37.3822 5.28788C37.6476 5.38047 37.9232 5.39762 38.2023 5.33932C38.5882 5.25702 38.888 5.08899 39.0982 4.8318C39.3084 4.5746 39.4359 4.28998 39.4806 3.97449L40.0113 3.86132C39.9906 4.15281 39.9182 4.43401 39.7942 4.70492C39.6702 4.97582 39.4841 5.21244 39.236 5.4182C38.9879 5.62395 38.6778 5.76112 38.3091 5.83999Z" fill="#1B1A16"/>
<path d="M41.3172 5.22958L40.8761 1.50886L40.2938 1.57745L40.2318 1.06649L40.8141 0.997906L40.7039 0.0617262L41.2414 0L41.3516 0.93618L42.754 0.771577L42.816 1.28253L41.4137 1.44714L41.7927 4.6569L43.2399 4.48886L43.3019 4.99982L41.3172 5.23301V5.22958Z" fill="#1B1A16"/>
<path d="M52.9117 5.33244C52.5258 5.281 52.1847 5.13697 51.8884 4.90036C51.592 4.66374 51.375 4.36883 51.2302 4.01219C51.089 3.65555 51.0442 3.27147 51.0993 2.85653C51.1544 2.4416 51.2991 2.08153 51.5335 1.7729C51.7678 1.46427 52.0572 1.23451 52.4052 1.08705C52.7532 0.939595 53.1219 0.888156 53.5078 0.939594C53.873 0.987604 54.1832 1.10077 54.4416 1.27566C54.7 1.45055 54.8999 1.66316 55.0446 1.90664C55.1893 2.15011 55.2823 2.40731 55.3271 2.67136L54.7793 2.59934C54.7069 2.31815 54.5587 2.06781 54.3348 1.85177C54.1108 1.63573 53.811 1.50199 53.4423 1.45055C53.1529 1.41283 52.8773 1.45055 52.6188 1.56029C52.3604 1.67002 52.1433 1.84834 51.9711 2.08153C51.7988 2.31815 51.6885 2.59934 51.6437 2.92855C51.5989 3.2509 51.6334 3.54924 51.7402 3.82358C51.847 4.09792 52.0124 4.32425 52.2295 4.49914C52.45 4.67746 52.7015 4.78376 52.9841 4.82148C53.3769 4.87292 53.7145 4.81463 54.0005 4.64316C54.2865 4.4717 54.5002 4.24537 54.6483 3.96418L55.1858 4.03619C55.0687 4.30367 54.9067 4.54372 54.6966 4.75633C54.4864 4.96894 54.2314 5.13354 53.9316 5.24328C53.6284 5.35302 53.2907 5.38388 52.9152 5.33244H52.9117Z" fill="#1B1A16"/>
<path d="M57.6082 6.2412C57.2085 6.14175 56.8708 5.95657 56.5952 5.68909C56.3195 5.42161 56.13 5.10269 56.0266 4.7289C55.9233 4.35512 55.9233 3.96762 56.0266 3.56297C56.13 3.15832 56.3161 2.81539 56.5883 2.5342C56.857 2.253 57.1775 2.05753 57.5496 1.95466C57.9183 1.85178 58.3042 1.84835 58.7073 1.95123C59.107 2.0541 59.4447 2.23585 59.7204 2.50333C59.996 2.77081 60.1855 3.09316 60.2889 3.47038C60.3923 3.84759 60.3923 4.23852 60.2889 4.64317C60.1855 5.04782 59.9995 5.39075 59.7307 5.66851C59.4619 5.94971 59.1415 6.14175 58.7694 6.24462C58.4007 6.3475 58.0148 6.35093 57.6116 6.24805L57.6082 6.2412ZM57.7357 5.74396C58.0354 5.8194 58.3283 5.8194 58.6074 5.7371C58.89 5.65823 59.1312 5.51077 59.3344 5.29816C59.5377 5.08554 59.679 4.81806 59.7583 4.50258C59.841 4.18023 59.8444 3.87846 59.7686 3.59383C59.6928 3.3092 59.5515 3.06573 59.3413 2.8634C59.1312 2.66108 58.8762 2.52048 58.5764 2.44504C58.2766 2.36959 57.9838 2.36959 57.7047 2.44847C57.4221 2.52734 57.1809 2.6748 56.9776 2.88741C56.7743 3.10002 56.6331 3.37093 56.5504 3.68985C56.4711 4.00534 56.4677 4.30711 56.5435 4.58831C56.6193 4.87293 56.7605 5.11641 56.9707 5.31873C57.1809 5.52106 57.4359 5.66166 57.7357 5.7371V5.74396Z" fill="#1B1A16"/>
<path d="M60.6059 6.98534L62.1323 3.004L62.6457 3.19946L62.3873 3.87159H62.3942C62.5975 3.6967 62.849 3.58354 63.1453 3.53553C63.4417 3.49095 63.7552 3.52867 64.0826 3.65212C64.5546 3.83044 64.8751 4.12536 65.0473 4.53686C65.2196 4.94837 65.2024 5.41818 64.9991 5.94628L64.0929 8.30902L63.576 8.11355L64.4719 5.77482C64.627 5.3736 64.6407 5.02724 64.5202 4.73919C64.3996 4.45113 64.1618 4.23509 63.8138 4.10478C63.5554 4.00533 63.3038 3.9779 63.0592 4.01905C62.8146 4.0602 62.594 4.16308 62.4011 4.33111C62.2081 4.49914 62.0565 4.72204 61.9497 4.99981L61.1124 7.17737L60.599 6.98191L60.6059 6.98534Z" fill="#1B1A16"/>
<path d="M65.2575 8.87142L66.9183 5.51077L66.3911 5.25358L66.6185 4.79063L67.1457 5.04783L67.5626 4.20081L68.0484 4.43742L67.6315 5.28444L68.8995 5.90513L68.6721 6.36808L67.4041 5.74739L65.9707 8.64852L67.2766 9.28636L67.0492 9.7493L65.254 8.87142H65.2575Z" fill="#1B1A16"/>
<path d="M69.2234 11.097C68.9064 10.9015 68.6652 10.6409 68.4964 10.3151C68.331 9.98936 68.2587 9.63272 68.2793 9.25208C68.3 8.86801 68.4206 8.50108 68.6411 8.14444C68.8616 7.7878 69.1373 7.51346 69.475 7.32142C69.8092 7.12939 70.1606 7.02994 70.5293 7.02994C70.898 7.02994 71.2391 7.12596 71.5561 7.32142C71.8249 7.48603 72.0282 7.67463 72.1626 7.88382C72.2969 8.093 72.3865 8.29532 72.4313 8.49079C72.4727 8.68283 72.4865 8.82686 72.4692 8.91944H72.4761L72.8965 8.24389L73.3582 8.52851L71.1151 12.1566L70.6534 11.8754L71.0703 11.2033H71.0634C70.9876 11.2548 70.8567 11.3062 70.6637 11.3576C70.4708 11.4056 70.2502 11.4194 70.0021 11.3885C69.7541 11.3611 69.4956 11.265 69.2269 11.1004L69.2234 11.097ZM69.5473 10.6889C69.792 10.8398 70.0538 10.9153 70.3364 10.9187C70.6189 10.9221 70.8842 10.8501 71.1358 10.7026C71.3873 10.5552 71.6009 10.3391 71.7767 10.0579C71.9524 9.77675 72.0489 9.4887 72.0661 9.19721C72.0833 8.90573 72.0282 8.63482 71.9007 8.38448C71.7732 8.13415 71.5837 7.93526 71.3425 7.78437C71.0979 7.63348 70.836 7.55804 70.5535 7.55804C70.2709 7.55804 70.0021 7.63005 69.7506 7.77751C69.4991 7.92497 69.2855 8.13758 69.1097 8.42221C68.934 8.7034 68.8375 8.99146 68.8203 9.28294C68.8031 9.57443 68.8582 9.84191 68.9891 10.0888C69.1201 10.3357 69.3061 10.5346 69.5508 10.6855L69.5473 10.6889Z" fill="#1B1A16"/>
<path d="M73.4754 14.0359C73.1687 13.7958 72.9482 13.5009 72.8138 13.1477C72.6795 12.7945 72.6416 12.431 72.7001 12.0503C72.7587 11.6697 72.9172 11.3165 73.1756 10.9907C73.4341 10.6615 73.7442 10.4249 74.1025 10.2774C74.4609 10.13 74.8295 10.0785 75.2051 10.1265C75.5807 10.1745 75.9218 10.3151 76.2285 10.5552C76.5179 10.7815 76.7281 11.0353 76.859 11.3165C76.99 11.5977 77.0554 11.8789 77.0554 12.1635C77.0554 12.4481 77.0072 12.7122 76.9107 12.9659L76.4766 12.6264C76.5558 12.3487 76.5558 12.0572 76.4766 11.7554C76.3939 11.4536 76.2044 11.1896 75.9115 10.9598C75.6806 10.7781 75.4256 10.6718 75.1465 10.6375C74.8674 10.6032 74.5918 10.6443 74.3196 10.7609C74.0474 10.8775 73.8096 11.0661 73.6063 11.3268C73.403 11.584 73.279 11.8549 73.2342 12.1463C73.186 12.4378 73.2135 12.7122 73.3135 12.9762C73.4134 13.2403 73.5753 13.4597 73.7993 13.6346C74.1094 13.8781 74.4333 13.9981 74.7641 13.9913C75.0983 13.9844 75.3981 13.8987 75.6668 13.7341L76.0941 14.0667C75.8563 14.2382 75.5945 14.3616 75.305 14.4405C75.0156 14.5194 74.7124 14.5297 74.3988 14.4714C74.0818 14.4131 73.7752 14.269 73.4788 14.0359H73.4754Z" fill="#1B1A16"/>
<path d="M75.8701 15.9391L78.4509 13.2128L78.0237 12.8116L78.3786 12.4378L78.8058 12.839L79.4571 12.1532L79.8533 12.5236L79.2021 13.2094L80.2289 14.173L79.874 14.5468L78.8472 13.5832L76.6179 15.9356L77.6757 16.9301L77.3208 17.3039L75.8667 15.9391H75.8701Z" fill="#1B1A16"/>
<path d="M83.2369 24.8585C83.0301 24.5293 82.9199 24.1761 82.913 23.7989C82.9061 23.4216 82.9922 23.065 83.1748 22.7289C83.3575 22.3929 83.6262 22.1117 83.9811 21.8888C84.336 21.6659 84.7082 21.5459 85.0941 21.5253C85.48 21.5047 85.8452 21.5801 86.1829 21.7516C86.5206 21.9231 86.7928 22.17 87.003 22.4992C87.1994 22.8078 87.3096 23.1164 87.3406 23.4285C87.3682 23.7371 87.3372 24.0252 87.2407 24.2927C87.1442 24.5601 87.0099 24.7933 86.8341 24.9991L86.5412 24.5361C86.7101 24.2995 86.81 24.0286 86.8307 23.7166C86.8548 23.4045 86.7652 23.0924 86.5688 22.7769C86.4138 22.53 86.207 22.3449 85.9555 22.218C85.704 22.0911 85.4317 22.0397 85.1354 22.0568C84.8425 22.074 84.5531 22.1734 84.2706 22.3483C83.9949 22.5232 83.7847 22.7392 83.64 22.9964C83.4987 23.2536 83.4298 23.5245 83.4333 23.8057C83.4367 24.0869 83.516 24.3475 83.671 24.591C83.8812 24.9236 84.1465 25.1465 84.4601 25.2529C84.7736 25.3592 85.0872 25.3797 85.3973 25.3111L85.6867 25.7672C85.4042 25.8495 85.1147 25.877 84.8184 25.8564C84.5221 25.8358 84.2327 25.7432 83.9536 25.5821C83.6745 25.4209 83.4367 25.1808 83.2334 24.8619L83.2369 24.8585Z" fill="#1B1A16"/>
<path d="M85.5456 29.0216C85.3664 28.6512 85.2906 28.274 85.3216 27.8934C85.3491 27.5127 85.4766 27.1629 85.6972 26.844C85.9177 26.5251 86.2209 26.2748 86.5965 26.0964C86.9755 25.9147 87.358 25.8392 87.7508 25.8633C88.1436 25.8873 88.495 26.0107 88.8155 26.2233C89.1325 26.4394 89.3806 26.7343 89.5597 27.1046C89.7389 27.475 89.8147 27.8522 89.7837 28.2329C89.7561 28.6135 89.6286 28.9667 89.4047 29.2856C89.1807 29.6045 88.8775 29.8549 88.5019 30.0366C88.1229 30.2184 87.7404 30.2938 87.3511 30.2664C86.9617 30.239 86.6103 30.1189 86.2933 29.9029C85.9763 29.6868 85.7282 29.3954 85.549 29.0216H85.5456ZM86.0107 28.7987C86.1451 29.0764 86.3346 29.2993 86.5758 29.4605C86.817 29.6251 87.0858 29.7143 87.3821 29.7314C87.6784 29.7486 87.9713 29.6868 88.2676 29.5462C88.5674 29.4022 88.8017 29.2102 88.974 28.9701C89.1463 28.7301 89.2427 28.466 89.2634 28.1746C89.2841 27.8831 89.229 27.6019 89.0946 27.3241C88.9602 27.0463 88.7707 26.8234 88.5295 26.6623C88.2883 26.4977 88.0195 26.4085 87.7232 26.3914C87.4269 26.3742 87.1305 26.4359 86.8308 26.58C86.5345 26.7206 86.3036 26.9126 86.1313 27.1526C85.959 27.3927 85.8626 27.6567 85.8419 27.9482C85.8212 28.2397 85.8763 28.5209 86.0107 28.7987Z" fill="#1B1A16"/>
<path d="M86.8962 31.789L90.9449 30.4001L91.124 30.918L90.4384 31.1511V31.158C90.7106 31.1992 90.9587 31.3158 91.1861 31.5146C91.4135 31.7135 91.5823 31.9742 91.696 32.3034C91.8614 32.78 91.8407 33.2155 91.634 33.6065C91.4273 34.0008 91.0551 34.2889 90.5176 34.4741L88.116 35.2971L87.9368 34.7793L90.3143 33.9631C90.7209 33.8225 90.9966 33.6133 91.1447 33.3356C91.2894 33.0544 91.3032 32.7389 91.1826 32.3891C91.093 32.1285 90.9518 31.9193 90.7623 31.7581C90.5727 31.5969 90.3522 31.4941 90.0973 31.4564C89.8423 31.4152 89.577 31.4461 89.2944 31.5421L87.0789 32.2999L86.8997 31.7821L86.8962 31.789Z" fill="#1B1A16"/>
<path d="M88.4261 36.5556L92.0819 35.6674L91.9441 35.1016L92.4472 34.9781L92.585 35.544L93.505 35.3211L93.6325 35.8457L92.7125 36.0686L93.0467 37.4335L92.5436 37.5569L92.2094 36.1921L89.0532 36.9602L89.3978 38.3662L88.8947 38.4897L88.4192 36.559L88.4261 36.5556Z" fill="#1B1A16"/>
<path d="M89.253 41.0102C89.1979 40.6432 89.2461 40.29 89.3908 39.954C89.5356 39.6179 89.763 39.3367 90.0731 39.1069C90.3832 38.8772 90.745 38.7332 91.1585 38.6714C91.5719 38.6131 91.9613 38.6474 92.3265 38.7777C92.6918 38.9081 92.9915 39.1172 93.2259 39.3984C93.4602 39.6796 93.6049 40.002 93.66 40.3689C93.7048 40.681 93.691 40.9553 93.6152 41.1953C93.5394 41.4354 93.4395 41.6309 93.3189 41.7886C93.1983 41.9464 93.0949 42.0458 93.0157 42.0938V42.1007L93.8082 41.9875L93.8874 42.5225L89.6493 43.1363L89.57 42.6013L90.3556 42.4882V42.4813C90.2626 42.4607 90.1386 42.3922 89.9766 42.2756C89.8147 42.1624 89.663 41.9978 89.5287 41.792C89.3908 41.5829 89.2978 41.3257 89.253 41.0136V41.0102ZM89.7733 40.9965C89.8147 41.2811 89.9249 41.528 90.1006 41.7475C90.2764 41.9669 90.5038 42.1212 90.7794 42.2207C91.0551 42.3201 91.3583 42.3441 91.6856 42.2961C92.0164 42.2481 92.299 42.1384 92.5333 41.9669C92.7676 41.7955 92.9433 41.5794 93.0536 41.3188C93.1638 41.0582 93.1983 40.7907 93.1569 40.5061C93.1156 40.2214 93.0053 39.9745 92.8262 39.7551C92.647 39.539 92.4196 39.3813 92.1439 39.2818C91.8683 39.1824 91.5651 39.1584 91.2377 39.2064C90.9069 39.2544 90.6244 39.3641 90.3901 39.5356C90.1558 39.7071 89.9835 39.9231 89.8767 40.1803C89.7699 40.4375 89.7354 40.7084 89.7768 40.993L89.7733 40.9965Z" fill="#1B1A16"/>
<path d="M89.7114 46.1437C89.701 45.7562 89.7872 45.3962 89.9732 45.0669C90.1593 44.7377 90.4177 44.4737 90.7451 44.2748C91.0724 44.0759 91.448 43.9696 91.8683 43.9593C92.2887 43.9456 92.6677 44.0313 93.0123 44.2096C93.3569 44.388 93.6325 44.6349 93.8358 44.9538C94.0391 45.2693 94.1494 45.6225 94.1597 46.0134C94.17 46.3803 94.1115 46.7027 93.9771 46.9839C93.8461 47.2651 93.6704 47.4948 93.4499 47.6766C93.2328 47.8583 92.9951 47.9921 92.7366 48.0778L92.7194 47.5291C92.9847 47.4125 93.2087 47.2274 93.3879 46.9702C93.567 46.713 93.6497 46.3975 93.6394 46.0271C93.6291 45.7356 93.5498 45.4716 93.3948 45.2384C93.2397 45.0018 93.033 44.82 92.7711 44.6863C92.5092 44.5526 92.2095 44.4943 91.8787 44.5011C91.5513 44.5114 91.2619 44.5903 91.0069 44.7412C90.7519 44.8921 90.5555 45.0875 90.4177 45.3344C90.2799 45.5779 90.2144 45.842 90.2213 46.13C90.2317 46.5244 90.3488 46.8467 90.5659 47.0971C90.783 47.3474 91.0414 47.5223 91.3446 47.6217L91.3618 48.1601C91.0793 48.0881 90.814 47.9681 90.5659 47.7966C90.3212 47.6252 90.1179 47.4023 89.9594 47.1245C89.8009 46.8467 89.7183 46.5175 89.7045 46.1403L89.7114 46.1437Z" fill="#1B1A16"/>
<path d="M89.7802 49.1889L93.5394 49.4084L93.5739 48.8254L94.0907 48.8563L94.0563 49.4392L95.0038 49.4941L94.9728 50.0325L94.0253 49.9776L93.9426 51.3802L93.4257 51.3493L93.5084 49.9468L90.2661 49.7582L90.1799 51.2053L89.6631 51.1744L89.7802 49.1889Z" fill="#1B1A16"/>
<path d="M87.6405 60.5259C87.7611 60.1556 87.9644 59.8469 88.2504 59.6C88.5364 59.3531 88.8671 59.192 89.2462 59.1131C89.6252 59.0376 90.0111 59.0616 90.4108 59.192C90.8105 59.3188 91.1413 59.5246 91.4066 59.8092C91.6719 60.0938 91.8442 60.4162 91.9303 60.7831C92.0165 61.15 91.9992 61.517 91.8786 61.8873C91.7649 62.2337 91.5995 62.5183 91.379 62.7412C91.1585 62.9607 90.9173 63.1219 90.6485 63.2179C90.3832 63.3139 90.1145 63.3619 89.8423 63.3585L90.0111 62.8372C90.3005 62.8167 90.5727 62.7138 90.8312 62.532C91.0861 62.3503 91.2722 62.0828 91.3859 61.7296C91.4755 61.4518 91.4893 61.1775 91.4238 60.9031C91.3583 60.6288 91.224 60.3888 91.0207 60.1761C90.8174 59.9635 90.559 59.8058 90.242 59.7029C89.9318 59.6035 89.6286 59.5795 89.3392 59.6378C89.0498 59.6961 88.7982 59.8161 88.5846 59.9978C88.371 60.1796 88.2194 60.4093 88.1332 60.6802C88.0126 61.054 88.0092 61.397 88.1332 61.7056C88.2538 62.0142 88.4364 62.2645 88.688 62.46L88.5191 62.9744C88.2745 62.8132 88.0678 62.6109 87.892 62.3674C87.7163 62.1239 87.6026 61.8462 87.5475 61.5307C87.4923 61.2152 87.5233 60.8791 87.6405 60.5191V60.5259Z" fill="#1B1A16"/>
<path d="M85.9039 64.9634C86.0762 64.5896 86.3174 64.2912 86.6309 64.0683C86.9445 63.8454 87.2959 63.7186 87.6818 63.6843C88.0712 63.65 88.4537 63.7186 88.8361 63.8935C89.2186 64.0684 89.5253 64.3118 89.7561 64.6273C89.987 64.9428 90.1214 65.2892 90.1593 65.6732C90.1972 66.0539 90.1283 66.4311 89.956 66.8049C89.7837 67.1787 89.5425 67.477 89.2289 67.6999C88.9154 67.9228 88.5639 68.0497 88.1746 68.084C87.7852 68.1183 87.3993 68.0463 87.0168 67.8748C86.6344 67.6999 86.3312 67.4564 86.1037 67.1444C85.8763 66.8289 85.742 66.4825 85.7075 66.1019C85.6696 65.7212 85.7385 65.344 85.9108 64.9702L85.9039 64.9634ZM86.3725 65.176C86.245 65.4572 86.1933 65.7418 86.2209 66.0299C86.2485 66.3179 86.3518 66.582 86.5276 66.8186C86.7033 67.0552 86.941 67.2404 87.2374 67.3776C87.5406 67.5147 87.8403 67.573 88.1332 67.549C88.4296 67.525 88.6949 67.429 88.9326 67.261C89.1704 67.0929 89.353 66.8666 89.4839 66.5888C89.6149 66.3111 89.6631 66.023 89.6355 65.735C89.608 65.4469 89.5046 65.1828 89.3289 64.9462C89.1531 64.7096 88.9154 64.521 88.6122 64.3838C88.3159 64.2501 88.0195 64.1918 87.7232 64.2158C87.4269 64.2398 87.1616 64.3358 86.9238 64.5039C86.6861 64.6719 86.5034 64.8982 86.3725 65.176Z" fill="#1B1A16"/>
<path d="M84.6359 67.765L88.3021 69.9666L88.0161 70.4364L87.3959 70.0661V70.0729C87.5337 70.3027 87.5992 70.5702 87.5923 70.8685C87.5854 71.1668 87.4923 71.4686 87.3097 71.767C87.0478 72.199 86.6998 72.4597 86.2622 72.5557C85.8246 72.6517 85.3629 72.5523 84.8771 72.2608L82.7029 70.9542L82.9889 70.4844L85.1424 71.7807C85.5111 72.0036 85.8488 72.079 86.1589 72.0104C86.469 71.9419 86.7205 71.7498 86.9135 71.4309C87.0547 71.1977 87.1271 70.9542 87.1305 70.7073C87.1305 70.4604 87.0685 70.2238 86.9376 70.0043C86.8066 69.7849 86.6137 69.5997 86.3553 69.4454L84.3499 68.2383L84.6359 67.7685V67.765Z" fill="#1B1A16"/>
<path d="M81.9379 71.9899L84.97 74.212L85.318 73.7422L85.735 74.0474L85.387 74.5172L86.1485 75.0762L85.828 75.5117L85.0665 74.9527L84.2292 76.0844L83.8123 75.7792L84.6496 74.6475L82.0343 72.7306L81.1695 73.8965L80.7526 73.5913L81.9379 71.9899Z" fill="#1B1A16"/>
<path d="M79.0333 75.4877C79.2814 75.2099 79.5811 75.0179 79.9326 74.915C80.284 74.8087 80.6493 74.8018 81.0249 74.891C81.4004 74.9801 81.745 75.1619 82.0551 75.4397C82.3652 75.7174 82.5892 76.0398 82.7236 76.3998C82.8545 76.7633 82.889 77.1234 82.8235 77.4835C82.758 77.8435 82.603 78.1625 82.3514 78.4402C82.1413 78.6734 81.9207 78.838 81.6864 78.9375C81.4556 79.0335 81.2385 79.0849 81.0386 79.0918C80.8388 79.0986 80.6975 79.0849 80.6079 79.0541L80.601 79.0609L81.1971 79.5925L80.8354 79.9937L77.6412 77.1543L78.003 76.7496L78.5957 77.2743L78.6026 77.2674C78.5612 77.1851 78.5337 77.0445 78.5164 76.8491C78.5026 76.6502 78.5302 76.4341 78.6026 76.1941C78.6749 75.954 78.8162 75.7174 79.0264 75.4842L79.0333 75.4877ZM79.3778 75.8752C79.1849 76.0878 79.0643 76.3313 79.0092 76.6056C78.954 76.8799 78.9781 77.1543 79.0815 77.4286C79.1814 77.7029 79.3572 77.9499 79.6053 78.1693C79.8533 78.3888 80.1187 78.5363 80.4046 78.6048C80.6906 78.6734 80.9663 78.6666 81.235 78.5843C81.5038 78.502 81.7347 78.3545 81.9276 78.1419C82.1206 77.9293 82.2412 77.6858 82.2929 77.408C82.3445 77.1337 82.3204 76.8559 82.2171 76.585C82.1171 76.3107 81.9414 76.0638 81.6933 75.8443C81.4452 75.6248 81.1799 75.4774 80.8939 75.4088C80.6079 75.3402 80.3323 75.3471 80.067 75.4294C79.7982 75.5151 79.5708 75.6626 79.3778 75.8752Z" fill="#1B1A16"/>
<path d="M75.374 79.1295C75.6669 78.8723 75.9976 78.7077 76.3698 78.6391C76.7419 78.5705 77.1106 78.598 77.4758 78.7214C77.8411 78.8449 78.1615 79.0644 78.4406 79.3764C78.7197 79.6885 78.8989 80.0314 78.985 80.4086C79.0677 80.7858 79.0539 81.1528 78.9402 81.5128C78.8265 81.8729 78.6267 82.1815 78.3338 82.4421C78.0581 82.6856 77.7722 82.8468 77.4689 82.9257C77.1657 83.0045 76.8763 83.0183 76.5972 82.9702C76.3181 82.9188 76.0631 82.8262 75.8288 82.6856L76.2423 82.3221C76.5042 82.4524 76.7901 82.5004 77.1037 82.473C77.4173 82.4456 77.7136 82.3084 77.9927 82.0581C78.2098 81.866 78.3614 81.6328 78.4441 81.3654C78.5268 81.0979 78.5336 80.8201 78.4682 80.5355C78.4027 80.2509 78.258 79.9834 78.0375 79.7365C77.8204 79.493 77.5723 79.3215 77.2932 79.2255C77.0141 79.1295 76.735 79.1055 76.4594 79.1569C76.1803 79.2084 75.9356 79.3284 75.722 79.517C75.4257 79.7811 75.2499 80.0725 75.1983 80.4018C75.1466 80.731 75.1776 81.0396 75.2947 81.3345L74.8881 81.6946C74.7607 81.4305 74.6849 81.1528 74.6573 80.8544C74.6297 80.5561 74.6711 80.2577 74.7848 79.9594C74.8985 79.661 75.0949 79.3867 75.3809 79.1329L75.374 79.1295Z" fill="#1B1A16"/>
<path d="M73.0757 81.139L75.3153 84.1499L75.7874 83.8036L76.0941 84.2185L75.622 84.5648L76.1871 85.3227L75.7495 85.645L75.1844 84.8872L74.0508 85.7239L73.7441 85.309L74.8777 84.4723L72.9447 81.8763L71.7732 82.7405L71.4666 82.3256L73.0722 81.1425L73.0757 81.139Z" fill="#1B1A16"/>
<path d="M62.9524 86.7767C63.3142 86.6327 63.6829 86.5881 64.0551 86.6464C64.4306 86.7047 64.7649 86.8556 65.0681 87.0956C65.3713 87.3357 65.5987 87.6477 65.7538 88.0352C65.9088 88.4227 65.9639 88.8068 65.9157 89.1909C65.8675 89.5749 65.7296 89.9179 65.4988 90.2162C65.2714 90.518 64.975 90.7409 64.6133 90.8849C64.2721 91.0221 63.9448 91.0769 63.6347 91.0495C63.3246 91.0221 63.0455 90.9398 62.7974 90.7992C62.5528 90.6586 62.3426 90.4837 62.1703 90.2745L62.6802 90.0687C62.8835 90.2779 63.1351 90.422 63.4383 90.4974C63.7415 90.5763 64.0688 90.5454 64.4134 90.4082C64.6856 90.2985 64.9061 90.1339 65.075 89.9076C65.2438 89.6812 65.3472 89.4241 65.3782 89.1326C65.4126 88.8411 65.3678 88.5427 65.2438 88.2341C65.1232 87.9323 64.944 87.6889 64.7166 87.5037C64.4858 87.3185 64.2342 87.2019 63.9551 87.1573C63.676 87.1128 63.4038 87.1436 63.1385 87.2499C62.7698 87.3974 62.508 87.6168 62.346 87.9049C62.1841 88.193 62.1083 88.4982 62.1186 88.8136L61.6155 89.016C61.5845 88.7245 61.6086 88.4364 61.681 88.1484C61.7568 87.8603 61.8981 87.5928 62.1048 87.3494C62.3116 87.1059 62.5906 86.9139 62.9456 86.7733L62.9524 86.7767Z" fill="#1B1A16"/>
<path d="M58.4214 88.2959C58.8211 88.1861 59.207 88.1793 59.5791 88.2787C59.9513 88.3747 60.2751 88.5599 60.5508 88.8342C60.8264 89.1086 61.0194 89.4481 61.1297 89.8493C61.2399 90.2505 61.2503 90.6415 61.1538 91.0221C61.0573 91.3993 60.8747 91.7251 60.6059 91.9994C60.3372 92.2703 60.0029 92.4624 59.6032 92.5721C59.2035 92.6819 58.8176 92.6887 58.4455 92.5893C58.0734 92.4898 57.7495 92.3046 57.4738 92.0269C57.1982 91.7491 57.0052 91.4096 56.8915 91.0084C56.7813 90.6072 56.7709 90.2162 56.8674 89.8424C56.9639 89.4652 57.1465 89.1429 57.4153 88.8685C57.684 88.5976 58.0182 88.4056 58.4179 88.2959H58.4214ZM58.5592 88.7931C58.2594 88.8754 58.0079 89.0194 57.8046 89.2252C57.6013 89.4309 57.4635 89.6778 57.3911 89.9659C57.3222 90.2505 57.3291 90.5523 57.4153 90.8644C57.5048 91.1833 57.653 91.4473 57.8597 91.6599C58.0665 91.8691 58.3111 92.0131 58.5937 92.0852C58.8762 92.1572 59.1656 92.1537 59.4654 92.0714C59.7652 91.9891 60.0167 91.8451 60.22 91.6394C60.4233 91.4336 60.5611 91.1867 60.6335 90.8987C60.7024 90.614 60.6955 90.3088 60.6059 89.9899C60.5198 89.6744 60.3716 89.4138 60.1649 89.2046C59.9581 88.9954 59.7135 88.8514 59.431 88.7794C59.1484 88.7039 58.859 88.7074 58.5592 88.7897V88.7931Z" fill="#1B1A16"/>
<path d="M55.4512 89.1223L56.1024 93.3334L55.558 93.4157L55.4477 92.7024H55.4408C55.3512 92.9596 55.1893 93.1825 54.955 93.3677C54.7207 93.5529 54.4278 93.6729 54.0832 93.7278C53.5836 93.8032 53.1564 93.7072 52.8049 93.4329C52.4534 93.1585 52.2329 92.7436 52.1468 92.1846L51.7609 89.6847L52.3053 89.6024L52.6877 92.0749C52.7532 92.5001 52.9117 92.8053 53.1632 93.0008C53.4148 93.1962 53.7249 93.2614 54.0936 93.2065C54.3658 93.1654 54.6001 93.0659 54.793 92.9082C54.986 92.7504 55.1273 92.5515 55.21 92.3115C55.2961 92.0714 55.3133 91.804 55.2685 91.5091L54.9136 89.2046L55.458 89.1223H55.4512Z" fill="#1B1A16"/>
<path d="M50.4654 89.7739L50.6962 93.5117L51.282 93.4774L51.313 93.9918L50.7272 94.0261L50.7858 94.9691L50.2448 95.0034L50.1863 94.0638L48.777 94.1496L48.746 93.6352L50.1553 93.5494L49.9554 90.3225L48.5013 90.4117L48.4703 89.8973L50.4654 89.7739Z" fill="#1B1A16"/>
<path d="M45.9067 89.7979C46.2789 89.8116 46.62 89.9179 46.9266 90.1168C47.2333 90.3157 47.4745 90.59 47.6468 90.933C47.8191 91.2759 47.8983 91.6565 47.8845 92.0715C47.8708 92.4898 47.7674 92.8636 47.571 93.1997C47.378 93.5323 47.1196 93.7929 46.7992 93.9712C46.4787 94.1496 46.1341 94.2387 45.762 94.225C45.445 94.2147 45.1763 94.153 44.9523 94.0364C44.7283 93.9198 44.5491 93.7895 44.4182 93.642C44.2838 93.4946 44.2011 93.378 44.1701 93.2923H44.1632L44.1391 94.0878L43.5981 94.0707L43.736 89.8116L44.2769 89.8287L44.2528 90.6175H44.2597C44.2976 90.5317 44.3872 90.422 44.5285 90.2848C44.6697 90.1477 44.8558 90.0276 45.0867 89.9282C45.3175 89.8287 45.5897 89.7842 45.9067 89.7944V89.7979ZM45.8309 90.3088C45.5449 90.2985 45.2762 90.3637 45.0315 90.4974C44.7869 90.6312 44.5905 90.8266 44.4458 91.0804C44.3011 91.3342 44.2218 91.6257 44.2115 91.9549C44.2011 92.2841 44.2597 92.5824 44.3906 92.843C44.5216 93.1036 44.7042 93.3128 44.9385 93.4637C45.1728 93.6146 45.4381 93.6969 45.7241 93.7072C46.0101 93.7175 46.2789 93.6523 46.5235 93.5152C46.7681 93.378 46.9645 93.1825 47.1127 92.9288C47.2574 92.675 47.3367 92.3835 47.347 92.0543C47.3573 91.7217 47.2988 91.4268 47.1678 91.1661C47.0369 90.9055 46.8543 90.6998 46.62 90.5489C46.3822 90.398 46.1204 90.3191 45.8344 90.3088H45.8309Z" fill="#1B1A16"/>
<path d="M40.7486 89.3452C41.1345 89.4035 41.4756 89.5509 41.7685 89.7876C42.0614 90.0276 42.275 90.326 42.4163 90.6826C42.5541 91.0392 42.592 91.4267 42.5334 91.8382C42.4714 92.2497 42.3232 92.6098 42.0855 92.915C41.8477 93.2202 41.5549 93.4466 41.2068 93.5906C40.8588 93.7346 40.4901 93.7792 40.1042 93.7243C39.739 93.6695 39.4323 93.5563 39.1774 93.3745C38.9224 93.1962 38.726 92.9836 38.5847 92.7367C38.4434 92.4898 38.3538 92.236 38.3125 91.9686L38.8569 92.0474C38.9258 92.3286 39.0705 92.579 39.2945 92.8019C39.5185 93.0213 39.8148 93.1585 40.1835 93.2134C40.4729 93.2545 40.7486 93.2237 41.007 93.1139C41.2654 93.0042 41.4859 92.8327 41.6617 92.5995C41.8374 92.3663 41.9511 92.0851 41.9993 91.7559C42.0476 91.4336 42.02 91.1352 41.9132 90.8609C41.8098 90.5866 41.6479 90.3568 41.4308 90.1785C41.2137 90.0002 40.9622 89.8904 40.6797 89.8459C40.2869 89.7876 39.9492 89.8459 39.6632 90.0139C39.3772 90.1819 39.1567 90.4048 39.0051 90.686L38.4676 90.6071C38.5882 90.3431 38.7535 90.1031 38.9637 89.8904C39.1739 89.6778 39.4323 89.5201 39.7356 89.4138C40.0388 89.3075 40.3764 89.2835 40.752 89.3383L40.7486 89.3452Z" fill="#1B1A16"/>
<path d="M37.7199 88.8788L36.8378 92.5207L37.4063 92.6578L37.2857 93.1585L36.7172 93.0213L36.4932 93.9369L35.966 93.8101L36.19 92.8945L34.8152 92.5652L34.9358 92.0646L36.3106 92.3938L37.0721 89.2526L35.6559 88.9131L35.7765 88.4124L37.7199 88.8788Z" fill="#1B1A16"/>
<path d="M26.8936 84.7603C27.2382 84.9455 27.507 85.1993 27.6999 85.5216C27.8929 85.8439 27.9928 86.2006 28.0031 86.5847C28.01 86.9687 27.917 87.3425 27.7171 87.7129C27.5173 88.0798 27.2554 88.3679 26.9281 88.577C26.6007 88.7862 26.2493 88.8994 25.8703 88.9165C25.4912 88.9337 25.1295 88.8514 24.7883 88.6696C24.4644 88.4982 24.2129 88.2821 24.0337 88.0284C23.8546 87.7746 23.7409 87.5071 23.6926 87.2294C23.6444 86.9516 23.6444 86.6807 23.6961 86.4132L24.1819 86.6738C24.1509 86.9619 24.2026 87.2465 24.337 87.5311C24.4713 87.8123 24.7022 88.0421 25.033 88.217C25.2914 88.3541 25.5602 88.4159 25.8427 88.4022C26.1252 88.3884 26.3871 88.2993 26.6352 88.1381C26.8798 87.9769 27.0831 87.7506 27.2416 87.4591C27.3967 87.1711 27.4725 86.883 27.4656 86.5881C27.4622 86.2932 27.3864 86.0257 27.2451 85.7857C27.1004 85.5422 26.904 85.3536 26.649 85.2198C26.301 85.0346 25.9633 84.9695 25.636 85.0346C25.3086 85.0964 25.0261 85.2335 24.7883 85.4427L24.3094 85.1855C24.5127 84.9764 24.7504 84.8083 25.0226 84.6814C25.2948 84.5546 25.5912 84.4928 25.9116 84.4928C26.2321 84.4928 26.5594 84.5854 26.8936 84.7637V84.7603Z" fill="#1B1A16"/>
<path d="M22.8174 82.2707C23.1586 82.5039 23.4101 82.7954 23.572 83.1417C23.7374 83.4881 23.7994 83.855 23.765 84.2391C23.7305 84.6232 23.5927 84.9901 23.355 85.333C23.1172 85.6759 22.8209 85.9331 22.466 86.1012C22.1145 86.2726 21.7458 86.3412 21.3634 86.3103C20.9809 86.2795 20.6191 86.1457 20.278 85.9125C19.9369 85.6794 19.6853 85.3879 19.5234 85.0415C19.358 84.6952 19.296 84.3282 19.3339 83.9407C19.3718 83.5532 19.5096 83.1863 19.7474 82.8434C19.9851 82.5005 20.2814 82.2433 20.6329 82.0752C20.9843 81.9072 21.353 81.8386 21.7355 81.8695C22.118 81.9004 22.4798 82.0341 22.8209 82.2673L22.8174 82.2707ZM22.5246 82.6925C22.2696 82.5176 21.9974 82.4182 21.7045 82.3942C21.4151 82.3702 21.136 82.425 20.8706 82.5553C20.6053 82.6856 20.3779 82.8845 20.1918 83.152C20.0023 83.4229 19.8921 83.7076 19.8645 83.999C19.8369 84.2905 19.8817 84.5683 20.0058 84.8323C20.1298 85.0964 20.3193 85.3159 20.5743 85.4908C20.8293 85.6656 21.1015 85.7651 21.3944 85.7891C21.6873 85.8131 21.9629 85.7582 22.2282 85.6279C22.4935 85.4976 22.721 85.2987 22.9105 85.0244C23.0965 84.7569 23.2033 84.4757 23.2344 84.1842C23.2654 83.8927 23.2171 83.615 23.0931 83.3509C22.969 83.0869 22.7795 82.8674 22.5246 82.6925Z" fill="#1B1A16"/>
<path d="M20.2711 80.5287L17.4456 83.7281L17.0322 83.3646L17.5111 82.8228L17.5042 82.816C17.2492 82.912 16.977 82.9325 16.6807 82.8708C16.3844 82.8125 16.1053 82.6651 15.8434 82.4353C15.4644 82.1027 15.2645 81.7152 15.2508 81.2694C15.2335 80.8236 15.4127 80.3915 15.7883 79.9663L17.4663 78.0665L17.8798 78.43L16.219 80.3092C15.933 80.6315 15.7986 80.9505 15.8124 81.2659C15.8262 81.5814 15.9709 81.8626 16.25 82.1061C16.4567 82.2879 16.6842 82.401 16.9288 82.449C17.1734 82.497 17.4181 82.473 17.6558 82.3839C17.897 82.2947 18.1141 82.137 18.3105 81.9141L19.8576 80.1617L20.2711 80.5252V80.5287Z" fill="#1B1A16"/>
<path d="M16.567 77.1406L13.8346 79.7193L14.2378 80.1411L13.8622 80.4944L13.459 80.0726L12.7699 80.7207L12.3978 80.3297L13.0869 79.6816L12.1152 78.6597L12.4908 78.3065L13.4625 79.3284L15.8193 77.1063L14.8166 76.0535L15.1922 75.7003L16.567 77.144V77.1406Z" fill="#1B1A16"/>
<path d="M13.628 73.6839C13.8588 73.9754 13.9932 74.3046 14.0346 74.6681C14.0759 75.0316 14.0208 75.3882 13.8657 75.7414C13.7141 76.0946 13.4695 76.3964 13.1421 76.657C12.8148 76.9176 12.4564 77.0754 12.074 77.1405C11.6915 77.2057 11.3297 77.1748 10.9852 77.048C10.6406 76.9211 10.3546 76.7119 10.1237 76.417C9.93078 76.1701 9.80329 75.9232 9.75161 75.6797C9.69648 75.4362 9.68614 75.2133 9.71371 75.0179C9.74127 74.8224 9.77917 74.6852 9.82397 74.6029L9.81708 74.5961L9.18652 75.0864L8.85229 74.6612L12.2221 72.0344L12.5564 72.4597L11.9327 72.9466L11.9396 72.9535C12.0292 72.926 12.1739 72.926 12.3703 72.9432C12.5667 72.9637 12.7803 73.0289 13.0009 73.1421C13.2248 73.2552 13.435 73.4336 13.628 73.6805V73.6839ZM13.1835 73.9548C13.0077 73.7285 12.7872 73.5673 12.5254 73.4644C12.2635 73.365 11.9878 73.3375 11.6984 73.389C11.409 73.4404 11.1333 73.5673 10.8714 73.773C10.6096 73.9788 10.4201 74.212 10.2995 74.4795C10.1789 74.7469 10.1375 75.0179 10.172 75.2991C10.2064 75.5803 10.3098 75.8306 10.489 76.0535C10.6647 76.2798 10.8852 76.441 11.1505 76.5404C11.4159 76.6399 11.6915 76.6639 11.9775 76.6124C12.2669 76.561 12.5426 76.4341 12.8045 76.2284C13.0663 76.0226 13.2558 75.7894 13.3764 75.522C13.497 75.2545 13.5349 74.9836 13.5005 74.7058C13.466 74.428 13.3592 74.1777 13.18 73.9514L13.1835 73.9548Z" fill="#1B1A16"/>
<path d="M10.6681 69.4591C10.8714 69.7917 10.9748 70.1449 10.9782 70.5222C10.9782 70.8994 10.8886 71.256 10.7025 71.5921C10.5165 71.9281 10.2443 72.2059 9.88592 72.422C9.52758 72.638 9.15545 72.7546 8.76609 72.7717C8.37673 72.7855 8.01494 72.7066 7.68071 72.5351C7.34648 72.3602 7.07427 72.1099 6.87098 71.7773C6.67803 71.4652 6.57121 71.1566 6.54364 70.8445C6.51952 70.5359 6.55398 70.2478 6.65391 69.9838C6.75383 69.7197 6.89166 69.4831 7.07083 69.2808L7.36026 69.7506C7.18798 69.9838 7.08806 70.2547 7.06049 70.5667C7.03293 70.8788 7.11907 71.1909 7.31202 71.5098C7.46363 71.7567 7.66693 71.9453 7.91846 72.0756C8.16999 72.2059 8.4422 72.2608 8.73508 72.2471C9.02796 72.2333 9.31739 72.1373 9.60338 71.9659C9.88248 71.7944 10.0961 71.5818 10.2408 71.3246C10.3855 71.0674 10.4579 70.7999 10.4579 70.5187C10.4579 70.2375 10.3821 69.9769 10.2305 69.7334C10.0238 69.3974 9.76188 69.1745 9.44833 69.0647C9.13477 68.955 8.82122 68.931 8.51111 68.9927L8.22857 68.5332C8.51111 68.4543 8.80054 68.4303 9.10032 68.4543C9.40009 68.4818 9.68608 68.5744 9.96173 68.739C10.2374 68.9036 10.4751 69.1436 10.6715 69.466L10.6681 69.4591Z" fill="#1B1A16"/>
<path d="M9.08655 66.8426L5.71326 68.5023L5.97169 69.0236L5.50997 69.2533L5.25154 68.7321L4.40392 69.1505L4.16272 68.6669L5.01035 68.2486L4.38324 66.99L4.84496 66.7603L5.47207 68.0222L8.38364 66.5888L7.7393 65.2891L8.20102 65.0594L9.08655 66.8426Z" fill="#1B1A16"/>
</svg>
